<?xml version="1.0" encoding="UTF-8"?>
<svg xmlns="http://www.w3.org/2000/svg" viewBox="0 0 200 49">

	<g fill="currentColor">
		<path d="M24 21L3.4 0H0v3.5l20.6 21L0 45.5V49h3.4L24 28l20.6 21H48v-3.5l-20.6-21L48 3.5V0h-3.4L24 21z"></path>
		<path d="M48 38.5v-6.9l-6.9-7 6.9-6.9v-7L34.2 24.6zM38 0h-6.9l-6.9 6.9L17.3 0h-6.9l13.8 13.9zM0 10.7v7l6.9 6.9-6.9 7v6.9l13.8-13.9zM20.7 38.6L10.4 49h6.9l6.9-6.9 6.9 6.9H38L24.2 35.1z"></path>
	</g>
	<g class="svg-logo__name" fill="currentColor">
		<path d="M191.2 27c2.3-.5 6-3.4 6-7.7.1-5.4-4-8.5-10.5-8.5h-12.1v27.1h6V28h4.3c1.5 2.5 6 9.3 10.3 11.4l4.6-3.3c-5.2-3.3-8.3-8.5-8.6-9.1zm-4-4.5h-6.6v-6.1h6.5c2.5 0 4 1.1 4 3 0 1.7-1.7 3.1-3.9 3.1zM169.2 32.1c2.2-3.2 2.8-6.5 2.8-6.5l-4.8-1.3s-.6 2.4-1.3 3.8l-6.8-8.3c-.6-.8-1.2-1.4-1.2-2.6 0-1.1.8-1.8 2.1-1.8 1.4 0 3.5.8 5.5 2.6l2.6-4.5c-2.5-1.9-5.4-2.8-7.9-2.8-4.2 0-7.6 2.4-7.6 6.5 0 1.9.8 3.9 2.5 5.7-1.4 1-5.2 3.1-5.2 7.7 0 4.8 3.5 7.8 8.9 7.8 2.6 0 5.1-.9 7-2.5l1.6 2h6.6l-4.8-5.8zm-10.3 1.3c-1.8 0-3.4-.9-3.4-2.9 0-1.5.9-2.7 2.8-3.8l4.5 5.5c-1.3.8-2.6 1.2-3.9 1.2zM146.5 10.9c-2 3.4-4.3 6.9-6.4 10.3l-6.3-10.3h-7.3c3.3 5.1 7.3 11.2 10.5 16.2v10.8h6V27.1l10.6-16.2h-7.1zM120.7 10.8h-6.1v27.1h19.1v-5.4h-13zM98.7 10.8L94 28l-4.8-17.2h-6.5l-7.8 27.1h6.8l4.7-16.7 4.2 16.7h6.1l4.9-16.7 4.3 16.7h6.1l-6.6-27.1zM71.7 10.9c-1.9 5.4-3.5 12.3-5.8 18.2-2.2-5.9-3.9-12.7-5.8-18.2h-6.6L62.2 38h7.5l8.6-27.1h-6.6z">
		</path>
	</g>
</svg>